<svg xmlns="http://www.w3.org/2000/svg" version="1.1" xmlns:xlink="http://www.w3.org/1999/xlink" xmlns:svgjs="http://svgjs.dev/svgjs" viewBox="0 0 800 800" opacity="0.15"><defs><linearGradient x1="50%" y1="0%" x2="50%" y2="100%" id="gggyrate-grad"><stop stop-color="#0ea5e9" stop-opacity="1" offset="0%"></stop><stop stop-color="#3b82f6" stop-opacity="1" offset="100%"></stop></linearGradient></defs><g stroke-width="2.5" stroke="url(#gggyrate-grad)" fill="none"><path d="M378.52263045076575 90.2379033738967C391.8128456121092 82.5661760700313 408.18721542304706 82.5661760700313 421.4774305843905 90.2400511139034L657.5226482786857 226.52059775784812C670.8128634400291 234.19232506171352 679.0000483454982 248.37385232582983 679.0000483454982 263.7194546735673V536.2805479614568C679.0000483454982 551.6261503091944 670.8128634400291 565.8076775733107 657.5226482786857 573.4815526171826L421.4774305843905 709.7620992611274C408.18721542304706 717.4338265649928 391.8128456121092 717.4338265649928 378.52263045076575 709.7599515211208L142.47741275647059 573.4794048771761C129.1871975951271 565.8076775733107 121.00001268965815 551.6261503091944 121.00001268965815 536.2805479614568V263.7194546735673C121.00001268965815 248.37385232582983 129.1871975951271 234.19232506171352 142.47741275647059 226.51845001784147L378.52263045076575 90.2379033738967Z " transform="rotate(108, 400, 400)" opacity="0.05"></path><path d="M379.71581934336643 107.4469197622501C392.2676892179686 100.20139953082165 407.73237181718764 100.20139953082165 420.28424169178993 107.44894818336752L643.2158361808463 236.1583533470931C655.7677060554486 243.4038735785216 663.5000473550581 256.7975382168536 663.5000473550581 271.29060710082797V528.709417428279C663.5000473550581 543.2024863122535 655.7677060554486 556.5961509505855 643.2158361808463 563.8436996031313L420.28424169178993 692.5531047668569C407.73237181718764 699.7986249982854 392.2676892179686 699.7986249982854 379.71581934336643 692.5510763457396L156.78422485430985 563.8416711820139C144.23235497970768 556.5961509505855 136.50001368009816 543.2024863122535 136.50001368009816 528.709417428279V271.29060710082797C136.50001368009816 256.7975382168536 144.23235497970768 243.4038735785216 156.78422485430985 236.15632492597575L379.71581934336643 107.4469197622501Z " transform="rotate(102, 400, 400)" opacity="0.11"></path><path d="M380.90899297717806 124.65590563302538C392.7225175650389 117.83659247403389 407.27751295253915 117.83659247403389 419.09103754040007 124.65781473525351L628.909008824218 245.79607841875998C640.722533412079 252.61539157775144 648.0000311058291 265.2211935902992 648.0000311058291 278.8617290105104V521.1382563775232C648.0000311058291 534.7787917977345 640.722533412079 547.3845938102822 628.909008824218 554.2058160715019L419.09103754040007 675.3440797550082C407.27751295253915 682.1633929139997 392.7225175650389 682.1633929139997 380.90899297717806 675.3421706527802L171.09102169336012 554.2039069692737C159.27749710549926 547.3845938102822 151.99999941174912 534.7787917977345 151.99999941174912 521.1382563775232V278.8617290105104C151.99999941174912 265.2211935902992 159.27749710549926 252.61539157775144 171.09102169336012 245.7941693165319L380.90899297717806 124.65590563302538Z " transform="rotate(96, 400, 400)" opacity="0.16"></path><path d="M382.1021666109897 141.86492202137873C393.1773459121092 135.47181593482426 406.8226540878908 135.47181593482426 417.8978333890103 141.86671180471768L614.6021814675896 255.43383400800496C625.6773607687091 261.82694009455946 632.5000148566 273.64487948132296 632.5000148566 286.43288143777096V513.5671258443456C632.5000148566 526.3551278007935 625.6773607687091 538.1730671875571 614.6021814675896 544.5679630574505L417.8978333890103 658.1350852607377C406.8226540878908 664.5281913472922 393.1773459121092 664.5281913472922 382.1021666109897 658.1332954773989L185.39781853241038 544.5661732741116C174.3226392312908 538.1730671875571 167.4999851434 526.3551278007935 167.4999851434 513.5671258443456V286.43288143777096C167.4999851434 273.64487948132296 174.3226392312908 261.82694009455946 185.39781853241038 255.43204422466613L382.1021666109897 141.86492202137873Z " transform="rotate(90, 400, 400)" opacity="0.22"></path><path d="M383.2953555035904 159.07393840973214C393.63218951796864 153.1070393956146 406.36781048203136 153.1070393956146 416.7046444964096 159.0756088741818L600.2953693697502 265.07158959724995C610.6322033841286 271.0384886113675 617.00001386616 282.06856537234677 617.00001386616 294.0040338650315V505.9959953111677C617.00001386616 517.9314638038526 610.6322033841286 528.9615405648319 600.2953693697502 534.930110043399L416.7046444964096 640.926090766467C406.36781048203136 646.8929897805847 393.63218951796864 646.8929897805847 383.2953555035904 640.9244203020176L199.70463063024965 534.9284395789493C189.36779661587138 528.9615405648319 182.99998613384003 517.9314638038526 182.99998613384003 505.9959953111677V294.0040338650315C182.99998613384003 282.06856537234677 189.36779661587138 271.0384886113675 199.70463063024965 265.06991913280035L383.2953555035904 159.07393840973214Z " transform="rotate(84, 400, 400)" opacity="0.27"></path><path d="M384.48854439619106 176.28292428050742C394.087033123828 170.74223233882685 405.912966876172 170.74223233882685 415.51145560380894 176.2844754260678L585.9885572719111 274.7093146689168C595.5870459995481 280.2500066105973 601.50001287572 290.49222074579245 601.50001287572 301.57515577471395V498.4248342604119C601.50001287572 509.5077692893335 595.5870459995481 519.7499834245286 585.9885572719111 525.2922265117695L415.51145560380894 623.7170657546185C405.912966876172 629.257757696299 394.087033123828 629.257757696299 384.48854439619106 623.7155146090581L214.01144272808898 525.2906753662091C204.41295400045203 519.7499834245286 198.49998712428004 509.5077692893335 198.49998712428004 498.4248342604119V301.57515577471395C198.49998712428004 290.49222074579245 204.41295400045203 280.2500066105973 214.01144272808898 274.70776352335645L384.48854439619106 176.28292428050742Z " transform="rotate(78, 400, 400)" opacity="0.33"></path><path d="M385.68173328879175 193.49194066886082C394.5418767296874 188.37745579961722 405.4581232703126 188.37745579961722 414.31826671120825 193.49337249553196L571.6817451740717 284.3470702581618C580.5418886149673 289.4615551274054 586.00001188528 298.9159066368162 586.00001188528 309.1463082019746V490.85370372723423C586.00001188528 501.0841052923927 580.5418886149673 510.5384568018035 571.6817451740717 515.6543734977181L414.31826671120825 606.508071260348C405.4581232703126 611.6225561295915 394.5418767296874 611.6225561295915 385.68173328879175 606.5066394336768L228.3182548259283 515.6529416710471C219.45811138503262 510.5384568018035 213.99998811472 501.0841052923927 213.99998811472 490.85370372723423V309.1463082019746C213.99998811472 298.9159066368162 219.45811138503262 289.4615551274054 228.3182548259283 284.34563843149067L385.68173328879175 193.49194066886082Z " transform="rotate(72, 400, 400)" opacity="0.39"></path><path d="M386.87492218139244 210.70095705721423C394.9967203355468 206.01267926040757 405.0032796644532 206.01267926040757 413.12507781860756 210.70226956499607L557.3749330762323 293.98482584740674C565.4967312303868 298.67310364421337 570.50001089484 307.33959252784 570.50001089484 316.7174606292352V483.28257319405657C570.50001089484 492.66044129545173 565.4967312303868 501.3269301790783 557.3749330762323 506.0165204836667L413.12507781860756 589.2990767660774C405.0032796644532 593.9873545628841 394.9967203355468 593.9873545628841 386.87492218139244 589.2977642582956L242.62506692376758 506.015207975885C234.50326876961327 501.3269301790783 229.49998910516 492.66044129545173 229.49998910516 483.28257319405657V316.7174606292352C229.49998910516 307.33959252784 234.50326876961327 298.67310364421337 242.62506692376758 293.9835133396249L386.87492218139244 210.70095705721423Z " transform="rotate(66, 400, 400)" opacity="0.44"></path><path d="M388.0681110739931 227.9099429279895C395.45156394140616 223.6478722036198 404.54843605859384 223.6478722036198 411.9318889260069 227.91113611688206L543.0681209783932 303.6225509190736C550.4515738458061 307.88462164344327 555.0000099044 315.76324790128564 555.0000099044 324.28858253891764V475.71141214330066C555.0000099044 484.23674678093266 550.4515738458061 492.11537303877503 543.0681209783932 496.37863695203725L411.9318889260069 572.0900517542287C404.54843605859384 576.3521224785984 395.45156394140616 576.3521224785984 388.0681110739931 572.0888585653362L256.9318790216069 496.3774437631446C249.54842615419386 492.11537303877503 244.99999009560003 484.23674678093266 244.99999009560003 475.71141214330066V324.28858253891764C244.99999009560003 315.76324790128564 249.54842615419386 307.88462164344327 256.9318790216069 303.62135773018105L388.0681110739931 227.9099429279895Z " transform="rotate(60, 400, 400)" opacity="0.50"></path><path d="M389.2612999665938 245.11895931634288C395.90640754726553 241.28309566441018 404.09359245273447 241.28309566441018 410.7387000334062 245.12003318634623L528.7613088805538 313.2603065083186C535.4064164612255 317.0961701602513 539.5000089139601 324.18693379230945 539.5000089139601 331.85973496617817V468.14028161012294C539.5000089139601 475.8130827839917 535.4064164612255 482.9038464160499 528.7613088805538 486.74078393798584L410.7387000334062 554.8810572599582C404.09359245273447 558.716920911891 395.90640754726553 558.716920911891 389.2612999665938 554.879983389955L271.23869111944623 486.73971006798257C264.59358353877445 482.9038464160499 260.49999108604004 475.8130827839917 260.49999108604004 468.14028161012294V331.85973496617817C260.49999108604004 324.18693379230945 264.59358353877445 317.0961701602513 271.23869111944623 313.25923263831527L389.2612999665938 245.11895931634288Z " transform="rotate(54, 400, 400)" opacity="0.55"></path><path d="M390.4544888591945 262.32796044590725C396.36125115312495 258.9183038664115 403.63874884687505 258.9183038664115 409.5455111408055 262.3289149970213L514.4544967827144 322.8980468387745C520.361259076645 326.30770341827025 524.00000792352 332.61060442454414 524.00000792352 339.4308721346497V460.56913581815616C524.00000792352 467.38940352826177 520.361259076645 473.69230453453565 514.4544967827144 477.1029156651455L409.5455111408055 537.6720475068987C403.63874884687505 541.0817040863944 396.36125115312495 541.0817040863944 390.4544888591945 537.6710929557846L285.54550321728556 477.1019611140314C279.6387409233551 473.69230453453565 275.99999207648 467.38940352826177 275.99999207648 460.56913581815616V339.4308721346497C275.99999207648 332.61060442454414 279.6387409233551 326.30770341827025 285.54550321728556 322.8970922876605L390.4544888591945 262.32796044590725Z " transform="rotate(48, 400, 400)" opacity="0.61"></path><path d="M391.6476777517952 279.53696920486607C396.8160947589843 276.5535196978073 403.1839052410157 276.5535196978073 408.3523222482048 279.5378044370909L500.1476846848751 332.535794798625C505.3161016920643 335.51924430568374 508.50000693308 341.03428268617336 508.50000693308 347.00201693251574V452.99799765558384C508.50000693308 458.9657319019263 505.3161016920643 464.48077028241596 500.1476846848751 467.4650550216995L408.3523222482048 520.4630453832335C403.1839052410157 523.4464948902923 396.8160947589843 523.4464948902923 391.6476777517952 520.4622101510088L299.8523153151248 467.46421978947467C294.6838983079357 464.48077028241596 291.49999306692 458.9657319019263 291.49999306692 452.99799765558384V347.00201693251574C291.49999306692 341.03428268617336 294.6838983079357 335.51924430568374 299.8523153151248 332.5349595664002L391.6476777517952 279.53696920486607Z " transform="rotate(42, 400, 400)" opacity="0.66"></path><path d="M392.8408666443959 296.7459703344304C397.2709383648437 294.1887278998086 402.7290616351563 294.1887278998086 407.1591333556041 296.746686247766L485.84087258703585 342.1735351290809C490.27094430748366 344.7307775637027 493.00000594264 349.4579533184081 493.00000594264 354.57315410098727V445.4268518636171C493.00000594264 450.54205264619634 490.27094430748366 455.26922840090174 485.84087258703585 457.82718674885905L407.1591333556041 503.254035630174C402.7290616351563 505.8112780647958 397.2709383648437 505.8112780647958 392.8408666443959 503.2533197168384L314.15912741296415 457.82647083552354C309.72905569251634 455.26922840090174 306.99999405736 450.54205264619634 306.99999405736 445.4268518636171V354.57315410098727C306.99999405736 349.4579533184081 309.72905569251634 344.7307775637027 314.15912741296415 342.17281921574533L392.8408666443959 296.7459703344304Z " transform="rotate(36, 400, 400)" opacity="0.72"></path><path d="M394.03405553699656 313.95497146399475C397.7257819707031 311.8239361018099 402.2742180292969 311.8239361018099 405.96594446300344 313.95556805844103L471.5340604891966 351.81127545953683C475.22578692290307 353.94231082172166 477.5000049522 357.88162395064285 477.5000049522 362.1442912694588V437.85570607165033C477.5000049522 442.11837339046633 475.22578692290307 446.0576865193875 471.5340604891966 448.1893184760186L405.96594446300344 486.04502587711437C402.2742180292969 488.1760612392992 397.7257819707031 488.1760612392992 394.03405553699656 486.0444292826681L328.4659395108035 448.1887218815723C324.77421307709693 446.0576865193875 322.4999950478 442.11837339046633 322.4999950478 437.85570607165033V362.1442912694588C322.4999950478 357.88162395064285 324.77421307709693 353.94231082172166 328.4659395108035 351.8106788650905L394.03405553699656 313.95497146399475Z " transform="rotate(30, 400, 400)" opacity="0.78"></path><path d="M395.22724442959725 331.16397259355904C398.1806255765625 329.4591443038112 401.8193744234375 329.4591443038112 404.77275557040275 331.1644498691161L457.2272483913572 361.4490157899927C460.1806295383225 363.15384407974057 462.00000396176 366.30529458287754 462.00000396176 369.7154284379303V430.28456027968355C462.00000396176 433.6946941347363 460.1806295383225 436.8461446378733 457.2272483913572 438.5514502031782L404.77275557040275 468.8360161240548C401.8193744234375 470.5408444138027 398.1806255765625 470.5408444138027 395.22724442959725 468.8355388484978L342.77275160864275 438.55097292762116C339.8193704616775 436.8461446378733 337.99999603824 433.6946941347363 337.99999603824 430.28456027968355V369.7154284379303C337.99999603824 366.30529458287754 339.8193704616775 363.15384407974057 342.77275160864275 361.4485385144357L395.22724442959725 331.16397259355904Z " transform="rotate(24, 400, 400)" opacity="0.83"></path><path d="M396.42043332219794 348.3729889819125C398.63546918242184 347.09436776460154 401.36453081757816 347.09436776460154 403.57956667780206 348.37334693858026L442.9204362935179 371.0867713792377C445.13547215374183 372.3653925965486 446.50000297132 374.72898047390134 446.50000297132 377.2865808651909V422.7134297465058C446.50000297132 425.27103013779544 445.13547215374183 427.63461801514813 442.9204362935179 428.9135971891268L403.57956667780206 451.6270216297843C401.36453081757816 452.9056428470951 398.63546918242184 452.9056428470951 396.42043332219794 451.62666367311647L357.0795637064821 428.91323923245903C354.86452784625817 427.63461801514813 353.49999702868 425.27103013779544 353.49999702868 422.7134297465058V377.2865808651909C353.49999702868 374.72898047390134 354.86452784625817 372.3653925965486 357.0795637064821 371.08641342256993L396.42043332219794 348.3729889819125Z " transform="rotate(18, 400, 400)" opacity="0.89"></path><path d="M397.6136222147986 365.5819901114768C399.0903127882812 364.72957596660285 400.9096872117188 364.72957596660285 402.3863777852014 365.58222874925536L428.6136241956786 380.7245117096936C430.09031476916124 381.57692585456755 431.00000198088 383.15265110613603 431.00000198088 384.8577180336624V415.14228395453904C431.00000198088 416.8473508820654 430.09031476916124 418.4230761336339 428.6136241956786 419.27572891628637L402.3863777852014 434.4180118767247C400.9096872117188 435.2704260215986 399.0903127882812 435.2704260215986 397.6136222147986 434.41777323894615L371.3863758043214 419.27549027850785C369.90968523083876 418.4230761336339 368.99999801912 416.8473508820654 368.99999801912 415.14228395453904V384.8577180336624C368.99999801912 383.15265110613603 369.90968523083876 381.57692585456755 371.3863758043214 380.7242730719151L397.6136222147986 365.5819901114768Z " transform="rotate(12, 400, 400)" opacity="0.94"></path><path d="M398.8068111073993 382.7909912410411C399.54515639414063 382.36478416860416 400.45484360585937 382.36478416860416 401.1931888926007 382.7911105599304L414.3068120978393 390.36225204014954C415.0451573845806 390.7884591125865 415.50000099044 391.5763217383708 415.50000099044 392.42885520213395V407.57113816257225C415.50000099044 408.4236716263355 415.0451573845806 409.2115342521197 414.3068120978393 409.6378606434459L401.1931888926007 417.2090021236651C400.45484360585937 417.63520919610204 399.54515639414063 417.63520919610204 398.8068111073993 417.20888280477584L385.6931879021607 409.63774132455666C384.9548426154194 409.2115342521197 384.49999900956 408.4236716263355 384.49999900956 407.57113816257225V392.42885520213395C384.49999900956 391.5763217383708 384.9548426154194 390.7884591125865 385.6931879021607 390.3621327212603L398.8068111073993 382.7909912410411Z " transform="rotate(6, 400, 400)" opacity="1.00"></path></g></svg>